HIERARCHY
ROOT Hips
{
	OFFSET 0.000000 100.481300 0.000000
	CHANNELS 6 Xposition Yposition Zposition Xrotation Yrotation Zrotation 
	JOINT Spine
	{
		OFFSET -0.279200 12.230698 -2.892100
		CHANNELS 3 Xrotation Yrotation Zrotation
		JOINT Spine1
		{
			OFFSET -0.232667 10.192268 -1.242267
			CHANNELS 3 Xrotation Yrotation Zrotation
			JOINT Spine1_split
			{
				OFFSET -0.232667 10.192268 -1.242267
				CHANNELS 3 Xrotation Yrotation Zrotation
				JOINT Spine2
				{
					OFFSET -0.232667 10.192268 -1.242267
					CHANNELS 3 Xrotation Yrotation Zrotation
					JOINT Neck
					{
						OFFSET -0.418800 17.814194 8.416900
						CHANNELS 3 Xrotation Yrotation Zrotation
						JOINT Head
						{
							OFFSET 0.000000 7.031097 3.806800
							CHANNELS 3 Xrotation Yrotation Zrotation
							JOINT HeadTop_End
							{
								OFFSET 0.000000 24.646606 12.978600
								CHANNELS 3 Xrotation Yrotation Zrotation
								End Site
								{
									OFFSET 0.000000 0.000000 0.000000
								}
							}
						}
					}
					JOINT LeftShoulder
					{
						OFFSET 8.476499 7.247704 -3.868750
						CHANNELS 3 Xrotation Yrotation Zrotation
						JOINT LeftShoulder_split
						{
							OFFSET 8.476499 7.247704 -3.868750
							CHANNELS 3 Xrotation Yrotation Zrotation
							JOINT LeftArm
							{
								OFFSET 9.308998 -2.777710 0.208600
								CHANNELS 3 Xrotation Yrotation Zrotation
								JOINT LeftForeArm
								{
									OFFSET 29.972298 0.000000 0.000000
									CHANNELS 3 Xrotation Yrotation Zrotation
									JOINT LeftHand
									{
										OFFSET 26.026505 0.000000 0.000000
										CHANNELS 3 Xrotation Yrotation Zrotation
										JOINT LeftHandThumb1
										{
											OFFSET 12.240501 -7.147949 9.207150
											CHANNELS 3 Xrotation Yrotation Zrotation
											JOINT LeftHandThumb2
											{
												OFFSET 4.138618 -2.389435 2.389433
												CHANNELS 3 Xrotation Yrotation Zrotation
												JOINT LeftHandThumb3
												{
													OFFSET 2.726913 -1.574387 1.574386
													CHANNELS 3 Xrotation Yrotation Zrotation
													JOINT LeftHandThumb4
													{
														OFFSET 3.941010 -2.275345 2.275342
														CHANNELS 3 Xrotation Yrotation Zrotation
														End Site
														{
															OFFSET 0.000000 0.000000 0.000000
														}
													}
												}
											}
										}
										JOINT LeftHandIndex1
										{
											OFFSET 24.424698 -1.985611 5.953459
											CHANNELS 3 Xrotation Yrotation Zrotation
											JOINT LeftHandIndex2
											{
												OFFSET 6.426697 0.000000 0.000000
												CHANNELS 3 Xrotation Yrotation Zrotation
												JOINT LeftHandIndex3
												{
													OFFSET 5.337898 0.000000 0.000000
													CHANNELS 3 Xrotation Yrotation Zrotation
													JOINT LeftHandIndex4
													{
														OFFSET 4.409401 0.000000 0.000000
														CHANNELS 3 Xrotation Yrotation Zrotation
														End Site
														{
															OFFSET 0.000000 0.000000 0.000000
														}
													}
												}
											}
										}
										JOINT LeftHandMiddle1
										{
											OFFSET 23.810104 0.000000 0.000000
											CHANNELS 3 Xrotation Yrotation Zrotation
											JOINT LeftHandMiddle2
											{
												OFFSET 7.176498 0.000000 0.000000
												CHANNELS 3 Xrotation Yrotation Zrotation
												JOINT LeftHandMiddle3
												{
													OFFSET 6.774902 0.000000 0.000000
													CHANNELS 3 Xrotation Yrotation Zrotation
													JOINT LeftHandMiddle4
													{
														OFFSET 5.403328 0.000000 0.000000
														CHANNELS 3 Xrotation Yrotation Zrotation
														End Site
														{
															OFFSET 0.000000 0.000000 0.000000
														}
													}
												}
											}
										}
										JOINT LeftHandRing1
										{
											OFFSET 22.908401 -0.839279 -6.020567
											CHANNELS 3 Xrotation Yrotation Zrotation
											JOINT LeftHandRing2
											{
												OFFSET 6.337502 0.000000 0.000000
												CHANNELS 3 Xrotation Yrotation Zrotation
												JOINT LeftHandRing3
												{
													OFFSET 5.779297 0.000000 0.000000
													CHANNELS 3 Xrotation Yrotation Zrotation
													JOINT LeftHandRing4
													{
														OFFSET 4.965698 0.000000 0.000000
														CHANNELS 3 Xrotation Yrotation Zrotation
														End Site
														{
															OFFSET 0.000000 0.000000 0.000000
														}
													}
												}
											}
										}
										JOINT LeftHandPinky1
										{
											OFFSET 20.037003 -1.530319 -10.950146
											CHANNELS 3 Xrotation Yrotation Zrotation
											JOINT LeftHandPinky2
											{
												OFFSET 5.254700 0.000000 0.000000
												CHANNELS 3 Xrotation Yrotation Zrotation
												JOINT LeftHandPinky3
												{
													OFFSET 4.810204 0.000000 0.000000
													CHANNELS 3 Xrotation Yrotation Zrotation
													JOINT LeftHandPinky4
													{
														OFFSET 3.647202 0.000000 0.000000
														CHANNELS 3 Xrotation Yrotation Zrotation
														End Site
														{
															OFFSET 0.000000 0.000000 0.000000
														}
													}
												}
											}
										}
									}
								}
							}
						}
					}
					JOINT RightShoulder
					{
						OFFSET -7.570500 7.247704 -3.868750
						CHANNELS 3 Xrotation Yrotation Zrotation
						JOINT RightShoulder_split
						{
							OFFSET -7.570500 7.247704 -3.868750
							CHANNELS 3 Xrotation Yrotation Zrotation
							JOINT RightArm
							{
								OFFSET -9.308998 -2.777710 0.208500
								CHANNELS 3 Xrotation Yrotation Zrotation
								JOINT RightForeArm
								{
									OFFSET -29.972300 0.000000 0.000000
									CHANNELS 3 Xrotation Yrotation Zrotation
									JOINT RightHand
									{
										OFFSET -26.026505 0.000000 0.000000
										CHANNELS 3 Xrotation Yrotation Zrotation
										JOINT RightHandThumb1
										{
											OFFSET -12.240601 -7.148026 9.207092
											CHANNELS 3 Xrotation Yrotation Zrotation
											JOINT RightHandThumb2
											{
												OFFSET -4.138618 -2.389435 2.389433
												CHANNELS 3 Xrotation Yrotation Zrotation
												JOINT RightHandThumb3
												{
													OFFSET -2.726974 -1.574417 1.574421
													CHANNELS 3 Xrotation Yrotation Zrotation
													JOINT RightHandThumb4
													{
														OFFSET -3.941010 -2.275345 2.275343
														CHANNELS 3 Xrotation Yrotation Zrotation
														End Site
														{
															OFFSET 0.000000 0.000000 0.000000
														}
													}
												}
											}
										}
										JOINT RightHandIndex1
										{
											OFFSET -24.424698 -1.985657 5.953444
											CHANNELS 3 Xrotation Yrotation Zrotation
											JOINT RightHandIndex2
											{
												OFFSET -6.426697 0.000000 0.000000
												CHANNELS 3 Xrotation Yrotation Zrotation
												JOINT RightHandIndex3
												{
													OFFSET -5.337898 0.000000 0.000000
													CHANNELS 3 Xrotation Yrotation Zrotation
													JOINT RightHandIndex4
													{
														OFFSET -4.409401 0.000000 0.000000
														CHANNELS 3 Xrotation Yrotation Zrotation
														End Site
														{
															OFFSET 0.000000 0.000000 0.000000
														}
													}
												}
											}
										}
										JOINT RightHandMiddle1
										{
											OFFSET -23.810097 0.000000 0.000000
											CHANNELS 3 Xrotation Yrotation Zrotation
											JOINT RightHandMiddle2
											{
												OFFSET -7.176498 0.000000 0.000000
												CHANNELS 3 Xrotation Yrotation Zrotation
												JOINT RightHandMiddle3
												{
													OFFSET -6.774902 0.000000 0.000000
													CHANNELS 3 Xrotation Yrotation Zrotation
													JOINT RightHandMiddle4
													{
														OFFSET -5.403328 0.000000 0.000000
														CHANNELS 3 Xrotation Yrotation Zrotation
														End Site
														{
															OFFSET 0.000000 0.000000 0.000000
														}
													}
												}
											}
										}
										JOINT RightHandRing1
										{
											OFFSET -22.908302 -0.839325 -6.020576
											CHANNELS 3 Xrotation Yrotation Zrotation
											JOINT RightHandRing2
											{
												OFFSET -6.337502 0.000000 0.000000
												CHANNELS 3 Xrotation Yrotation Zrotation
												JOINT RightHandRing3
												{
													OFFSET -5.779297 0.000000 0.000000
													CHANNELS 3 Xrotation Yrotation Zrotation
													JOINT RightHandRing4
													{
														OFFSET -4.965698 0.000000 0.000000
														CHANNELS 3 Xrotation Yrotation Zrotation
														End Site
														{
															OFFSET 0.000000 0.000000 0.000000
														}
													}
												}
											}
										}
										JOINT RightHandPinky1
										{
											OFFSET -20.037003 -1.530334 -10.950259
											CHANNELS 3 Xrotation Yrotation Zrotation
											JOINT RightHandPinky2
											{
												OFFSET -5.254700 0.000000 0.000000
												CHANNELS 3 Xrotation Yrotation Zrotation
												JOINT RightHandPinky3
												{
													OFFSET -4.810204 0.000000 0.000000
													CHANNELS 3 Xrotation Yrotation Zrotation
													JOINT RightHandPinky4
													{
														OFFSET -3.647202 0.000000 0.000000
														CHANNELS 3 Xrotation Yrotation Zrotation
														End Site
														{
															OFFSET 0.000000 0.000000 0.000000
														}
													}
												}
											}
										}
									}
								}
							}
						}
					}
				}
			}
		}
	}
	JOINT LeftUpLeg
	{
		OFFSET 15.427100 -6.655098 0.678600
		CHANNELS 3 Xrotation Yrotation Zrotation
		JOINT LeftLeg
		{
			OFFSET 4.081073 -39.591068 13.024000
			CHANNELS 3 Xrotation Yrotation Zrotation
			JOINT LeftFoot
			{
				OFFSET -4.081074 -37.707932 -15.979700
				CHANNELS 3 Xrotation Yrotation Zrotation
				JOINT LeftToeBase
				{
					OFFSET 5.346399 -15.068900 20.645000
					CHANNELS 3 Xrotation Yrotation Zrotation
					JOINT LeftToe_End
					{
						OFFSET 2.754700 0.931300 11.300900
						CHANNELS 3 Xrotation Yrotation Zrotation
						End Site
						{
							OFFSET 0.000000 0.000000 0.000000
						}
					}
				}
			}
		}
	}
	JOINT RightUpLeg
	{
		OFFSET -15.569500 -6.655098 0.678600
		CHANNELS 3 Xrotation Yrotation Zrotation
		JOINT RightLeg
		{
			OFFSET -4.081825 -39.591045 13.023800
			CHANNELS 3 Xrotation Yrotation Zrotation
			JOINT RightFoot
			{
				OFFSET 4.081824 -37.707954 -15.979600
				CHANNELS 3 Xrotation Yrotation Zrotation
				JOINT RightToeBase
				{
					OFFSET -5.346400 -15.068900 20.645000
					CHANNELS 3 Xrotation Yrotation Zrotation
					JOINT RightToe_End
					{
						OFFSET -2.754700 0.931300 11.300900
						CHANNELS 3 Xrotation Yrotation Zrotation
						End Site
						{
							OFFSET 0.000000 0.000000 0.000000
						}
					}
				}
			}
		}
	}
}
MOTION
Frames: 5
Frame Time: 0.016667
4.589579 66.234528 140.110855 8.311150 -16.943220 1.890405 2.339548 -7.126720 0.811473 4.820223 -8.149185 2.085948 0.000000 0.000000 0.000000 4.820151 -8.149127 2.085947 9.532187 2.585898 14.901485 -2.611323 9.939553 -20.211635 -0.000000 -0.000000 0.000001 -4.481868 -16.524618 -19.193559 0.000000 0.000000 0.000000 -50.218252 -13.065776 -29.545349 -9.513747 -45.265122 18.313327 -90.641323 -9.142720 11.811235 18.604751 9.201135 -20.335708 9.366547 23.517113 3.907242 15.631118 30.652212 0.949981 0.000002 0.000000 0.000001 5.062915 7.259547 -60.393482 0.009029 -4.396063 -76.234740 -0.014955 1.943546 -28.702791 0.000001 -0.000002 -0.000003 -0.063973 4.758036 -60.986814 -0.080428 -4.896944 -84.974363 -0.077667 1.572465 -47.862694 -0.000002 -0.000000 0.000000 -0.034404 -0.057012 -61.362262 -0.169956 -1.351962 -91.625362 -0.058873 1.209376 -28.345017 -0.000001 0.000000 0.000000 -4.255099 -2.157325 -63.603172 -0.059587 -0.064765 -85.011068 -0.006183 -0.027525 -25.011487 -0.000001 0.000001 0.000001 0.026764 -1.767827 1.230270 0.000000 0.000000 0.000000 -18.293041 31.587327 8.179664 40.535185 8.128184 -4.683266 -43.424717 -46.363713 -11.839844 15.959772 -4.187774 29.032207 -14.791919 -41.235512 -16.515537 1.538915 -36.186489 -16.491852 0.000000 0.000002 0.000002 5.358212 -4.863574 67.585043 0.006244 4.394826 68.693425 -0.015229 -1.944179 51.003799 -0.000000 -0.000001 -0.000000 -0.076817 -4.752200 70.834888 -0.076457 4.897889 82.216333 -0.094629 -1.559172 59.800335 0.000001 -0.000002 -0.000001 -1.164525 -6.475318 73.357475 -0.172077 1.351244 92.834381 -0.068416 -1.195398 42.966275 0.000001 0.000002 -0.000004 -5.344945 -12.802386 81.125251 -0.058393 0.065301 84.695992 -0.011916 0.037070 34.883299 0.000001 -0.000000 0.000001 36.713073 30.976496 11.649215 28.024825 10.971854 -7.781868 -30.888998 5.159369 -33.300106 -32.294647 0.678138 -9.597809 -0.000000 -0.000001 -0.000001 -77.006947 -5.222025 -8.456482 56.172913 0.923342 -8.545957 11.426367 8.788356 5.685459 -2.924164 2.984525 1.673286 -0.000000 -0.000001 -0.000000 
3.833934 66.827858 142.673691 10.201797 -16.256340 1.561831 2.324911 -7.876204 0.904908 4.899760 -10.154799 2.662428 0.000000 0.000000 0.000000 4.899747 -10.154744 2.662417 8.502559 4.160275 15.381246 -1.540125 11.907277 -20.331217 -0.000000 0.000003 0.000000 -5.170241 -18.664281 -18.158321 0.000000 0.000000 0.000000 -46.432811 -18.052714 -34.485605 -9.204831 -38.217053 16.317071 -98.519967 2.929866 8.071414 18.604751 9.201135 -20.335708 9.366547 23.517110 3.907243 15.631115 30.652205 0.949976 -0.000002 0.000001 0.000002 5.062917 7.259546 -60.393482 0.009027 -4.396061 -76.234740 -0.014955 1.943552 -28.702791 0.000000 -0.000001 -0.000002 -0.063973 4.758034 -60.986814 -0.080429 -4.896941 -84.974363 -0.077668 1.572462 -47.862697 -0.000001 0.000001 0.000001 -0.034403 -0.057013 -61.362269 -0.169957 -1.351960 -91.625362 -0.058875 1.209377 -28.345015 -0.000000 -0.000000 0.000000 -4.255099 -2.157326 -63.603172 -0.059588 -0.064770 -85.011075 -0.006181 -0.027525 -25.011489 0.000000 0.000000 -0.000001 0.248725 -2.144185 4.457615 0.000000 0.000000 0.000000 -14.470977 21.706637 4.671656 37.782253 8.308569 -4.381089 -41.885128 -47.673672 -10.025592 15.959772 -4.187776 29.032201 -14.791919 -41.235512 -16.515539 1.538916 -36.186489 -16.491855 -0.000000 0.000002 -0.000000 5.358213 -4.863575 67.585043 0.006249 4.394831 68.693425 -0.015227 -1.944184 51.003799 -0.000000 -0.000001 -0.000000 -0.076816 -4.752200 70.834888 -0.076447 4.897892 82.216333 -0.094629 -1.559168 59.800335 0.000001 0.000002 -0.000001 -1.164524 -6.475320 73.357488 -0.172079 1.351245 92.834381 -0.068417 -1.195393 42.966282 -0.000001 0.000001 -0.000000 -5.344946 -12.802391 81.125251 -0.058394 0.065301 84.695992 -0.011915 0.037070 34.883299 -0.000000 0.000001 -0.000002 36.689953 32.830298 12.150814 25.002923 12.662958 -7.511707 -27.189965 4.459498 -34.391963 -34.766827 -1.082545 -11.336272 -0.000001 -0.000000 -0.000000 -77.093909 -6.791625 -8.952996 57.949251 2.047524 -8.564399 7.953830 7.505061 5.707915 -2.924217 2.984539 1.673303 -0.000000 -0.000001 -0.000000 
3.059633 67.521904 145.425674 11.961264 -15.488528 1.247976 2.296632 -8.478631 0.851223 4.960984 -11.924862 3.021994 0.000000 0.000000 0.000000 4.961004 -11.924949 3.022035 7.327440 5.709604 15.847432 -0.541796 13.761525 -20.423751 -0.000002 0.000001 -0.000001 -5.400962 -20.399538 -16.650065 0.000000 0.000000 0.000000 -43.348444 -23.388159 -38.897890 -9.093623 -31.903820 14.184717 -106.152389 14.962527 7.623541 18.604749 9.201138 -20.335707 9.366550 23.517111 3.907239 15.631118 30.652216 0.949977 0.000002 0.000001 0.000003 5.062917 7.259546 -60.393482 0.009030 -4.396060 -76.234747 -0.014953 1.943551 -28.702791 -0.000000 0.000000 0.000001 -0.063972 4.758036 -60.986814 -0.080429 -4.896946 -84.974363 -0.077664 1.572464 -47.862701 0.000000 -0.000003 -0.000000 -0.034403 -0.057009 -61.362262 -0.169958 -1.351960 -91.625369 -0.058871 1.209378 -28.345017 0.000001 0.000000 -0.000001 -4.255099 -2.157326 -63.603172 -0.059593 -0.064764 -85.011068 -0.006184 -0.027527 -25.011485 -0.000001 0.000002 -0.000000 0.440948 -2.570708 6.867597 0.000000 0.000000 0.000000 -12.839513 16.555906 3.599488 34.933641 8.728770 -3.601195 -39.383639 -54.979942 -8.524745 15.959770 -4.187775 29.032207 -14.791919 -41.235512 -16.515537 1.538916 -36.186489 -16.491852 -0.000000 -0.000001 -0.000000 5.358212 -4.863574 67.585043 0.006247 4.394829 68.693419 -0.015227 -1.944183 51.003802 0.000000 -0.000001 -0.000000 -0.076817 -4.752199 70.834888 -0.076452 4.897891 82.216339 -0.094629 -1.559169 59.800335 -0.000000 -0.000001 -0.000000 -1.164525 -6.475317 73.357475 -0.172077 1.351245 92.834381 -0.068417 -1.195395 42.966278 0.000000 -0.000000 0.000001 -5.344946 -12.802390 81.125251 -0.058394 0.065301 84.695992 -0.011916 0.037071 34.883299 0.000000 -0.000000 0.000001 36.364658 34.555460 12.988631 22.351120 14.359315 -7.339622 -22.074864 3.555086 -35.590490 -38.718874 -3.278378 -12.999108 -0.000000 -0.000001 -0.000001 -76.573374 -8.057944 -9.274095 59.592902 3.557002 -8.541245 4.258346 5.477684 5.776718 -2.924258 2.984550 1.673324 -0.000000 -0.000001 -0.000000 
2.477596 68.094353 147.852493 13.033420 -15.984002 0.934639 2.262831 -8.990044 0.764202 5.005436 -13.331996 3.278268 0.000000 0.000000 0.000000 5.005471 -13.331914 3.278241 6.051131 7.224988 16.300540 0.372247 15.500508 -20.487829 -0.000000 0.000002 -0.000001 -5.462527 -21.822308 -15.277251 0.000000 0.000000 0.000000 -41.539834 -28.186693 -42.662659 -9.093027 -26.803756 12.045784 -113.642709 25.261569 10.199963 18.604754 9.201137 -20.335710 9.366547 23.517110 3.907240 15.631120 30.652209 0.949977 -0.000001 0.000001 -0.000001 5.062916 7.259545 -60.393482 0.009028 -4.396062 -76.234740 -0.014958 1.943551 -28.702794 0.000002 0.000001 -0.000002 -0.063971 4.758037 -60.986814 -0.080425 -4.896944 -84.974356 -0.077669 1.572463 -47.862697 -0.000000 0.000002 0.000001 -0.034403 -0.057010 -61.362262 -0.169954 -1.351963 -91.625362 -0.058878 1.209379 -28.345024 0.000001 -0.000001 -0.000001 -4.255099 -2.157328 -63.603172 -0.059588 -0.064764 -85.011075 -0.006182 -0.027524 -25.011487 -0.000000 -0.000001 -0.000000 0.571902 -3.041689 8.393502 0.000000 0.000000 0.000000 -12.235259 14.739598 3.552607 31.986886 9.211516 -2.529631 -37.140264 -64.951158 -8.984005 15.959772 -4.187775 29.032204 -14.791922 -41.235512 -16.515536 1.538915 -36.186486 -16.491854 -0.000002 0.000001 0.000002 5.358213 -4.863574 67.585043 0.006248 4.394828 68.693419 -0.015227 -1.944182 51.003796 -0.000001 -0.000000 0.000000 -0.076816 -4.752198 70.834888 -0.076453 4.897891 82.216333 -0.094629 -1.559170 59.800335 -0.000000 0.000000 -0.000001 -1.164524 -6.475318 73.357482 -0.172075 1.351245 92.834381 -0.068418 -1.195395 42.966278 0.000000 0.000001 -0.000002 -5.344946 -12.802390 81.125251 -0.058392 0.065301 84.695992 -0.011918 0.037074 34.883299 -0.000000 -0.000000 -0.000000 36.767369 35.935787 13.603212 20.323163 15.578625 -7.391746 -15.329823 2.287687 -37.704184 -42.693235 -5.484965 -12.706116 -0.000000 0.000006 0.000001 -75.382373 -8.616635 -8.762833 60.413440 3.722632 -8.487880 1.328556 5.159551 5.967659 -2.924278 2.984570 1.673347 -0.000000 0.000000 -0.000000 
1.943089 68.662994 150.339249 14.270050 -18.114534 0.661220 2.221776 -9.320863 0.627541 5.020472 -14.261176 3.429289 0.000000 0.000000 0.000000 5.020475 -14.261199 3.429300 4.691639 8.689886 16.737254 1.217204 17.122302 -20.516560 -0.000001 -0.000001 0.000001 -5.471196 -22.929560 -14.228717 0.000000 0.000000 0.000000 -41.478171 -31.387707 -45.804188 -9.131529 -23.397651 9.993873 -120.113480 32.475975 14.571650 18.604754 9.201136 -20.335705 9.366546 23.517110 3.907242 15.631120 30.652216 0.949977 0.000000 -0.000002 0.000001 5.062918 7.259546 -60.393482 0.009029 -4.396063 -76.234733 -0.014954 1.943552 -28.702794 0.000001 0.000000 -0.000003 -0.063975 4.758035 -60.986814 -0.080428 -4.896944 -84.974356 -0.077667 1.572463 -47.862697 -0.000001 -0.000000 0.000001 -0.034403 -0.057013 -61.362262 -0.169957 -1.351961 -91.625362 -0.058875 1.209378 -28.345020 -0.000000 -0.000001 -0.000001 -4.255102 -2.157328 -63.603172 -0.059588 -0.064767 -85.011068 -0.006182 -0.027522 -25.011487 0.000002 -0.000001 -0.000001 0.633975 -3.524488 9.224203 0.000000 0.000000 0.000000 -11.604626 13.355077 3.496328 28.949408 9.599964 -1.419306 -39.012357 -72.336402 -13.555459 15.959772 -4.187776 29.032204 -14.791920 -41.235508 -16.515537 1.538915 -36.186489 -16.491855 0.000002 0.000000 0.000000 5.358213 -4.863574 67.585043 0.006248 4.394833 68.693425 -0.015229 -1.944182 51.003802 0.000000 0.000003 -0.000000 -0.076818 -4.752200 70.834888 -0.076453 4.897889 82.216333 -0.094630 -1.559171 59.800335 -0.000000 -0.000000 -0.000000 -1.164525 -6.475316 73.357475 -0.172077 1.351245 92.834381 -0.068419 -1.195394 42.966278 -0.000000 0.000003 0.000000 -5.344947 -12.802392 81.125251 -0.058392 0.065301 84.695992 -0.011913 0.037073 34.883296 0.000000 -0.000004 -0.000000 37.732137 37.054596 13.611069 18.586934 17.184945 -7.659913 -6.739055 0.608422 -39.299413 -45.467944 -7.468564 -11.579765 0.000000 0.000002 0.000000 -73.931866 -8.374467 -6.529294 60.488599 3.562010 -8.381236 -1.012878 5.011842 6.386811 -2.924328 2.984592 1.673370 0.000000 0.000000 -0.000000 
